HIERARCHY
ROOT SpineBase
{
  OFFSET 0.000000 0.000000 0.000000
  CHANNELS 6 Xposition Yposition Zposition Zrotation Xrotation Yrotation
  JOINT SpineMid
  {
    OFFSET 0.000000 21.951078 0.000000
    CHANNELS 3 Zrotation Xrotation Yrotation
    JOINT SpineShoulder
    {
      OFFSET 0.007331 16.406585 -0.616179
      CHANNELS 3 Zrotation Xrotation Yrotation
      JOINT Neck
      {
        OFFSET -0.051589 5.610320 -0.561167
        CHANNELS 3 Zrotation Xrotation Yrotation
        JOINT Head
        {
          OFFSET -1.108135 10.648293 3.233581
          CHANNELS 3 Zrotation Xrotation Yrotation
          End Site
          {
            OFFSET 0 0 0
          }
        }
      }
      JOINT ShoulderLeft
      {
        OFFSET -6.497402 19.632182 -12.777273
        CHANNELS 3 Zrotation Xrotation Yrotation
        JOINT ElbowLeft
        {
          OFFSET -1.704492 -24.228322 -2.976448
          CHANNELS 3 Zrotation Xrotation Yrotation
          JOINT WristLeft
          {
            OFFSET 2.286496 26.157305 -0.592856
            CHANNELS 3 Zrotation Xrotation Yrotation
            JOINT HandLeft
            {
              OFFSET -0.524524 3.929010 5.521726
              CHANNELS 3 Zrotation Xrotation Yrotation
              JOINT HandTipLeft
              {
                OFFSET 1.235584 8.864823 -2.175226
                CHANNELS 3 Zrotation Xrotation Yrotation
                End Site
                {
                  OFFSET 0 0 0
                }
              }
              JOINT ThumbLeft
              {
                OFFSET -5.117761 3.169712 -4.349903
                CHANNELS 3 Zrotation Xrotation Yrotation
                End Site
                {
                  OFFSET 0 0 0
                }
              }
            }
          }
        }
      }
      JOINT ShoulderRight
      {
        OFFSET 2.490162 -1.594440 1.585155
        CHANNELS 3 Zrotation Xrotation Yrotation
        JOINT ElbowRight
        {
          OFFSET -2.765984 -28.807062 -4.454997
          CHANNELS 3 Zrotation Xrotation Yrotation
          JOINT WristRight
          {
            OFFSET -7.170354 -30.850835 -4.573035
            CHANNELS 3 Zrotation Xrotation Yrotation
            JOINT HandRight
            {
              OFFSET -1.083646 -7.757674 -0.671632
              CHANNELS 3 Zrotation Xrotation Yrotation
              JOINT HandTipRight
              {
                OFFSET -0.714390 -7.185887 0.601403
                CHANNELS 3 Zrotation Xrotation Yrotation
                End Site
                {
                  OFFSET 0 0 0
                }
              }
              JOINT ThumbRight
              {
                OFFSET 3.420507 1.814700 0.330518
                CHANNELS 3 Zrotation Xrotation Yrotation
                End Site
                {
                  OFFSET 0 0 0
                }
              }
            }
          }
        }
      }
    }
  }
  JOINT HipLeft
  {
    OFFSET -2.908188 5.277374 -2.917846
    CHANNELS 3 Zrotation Xrotation Yrotation
    JOINT KneeLeft
    {
      OFFSET -8.484475 -30.684007 -8.992570
      CHANNELS 3 Zrotation Xrotation Yrotation
      JOINT AnkleLeft
      {
        OFFSET 4.725178 -30.512642 13.054190
        CHANNELS 3 Zrotation Xrotation Yrotation
        JOINT FootLeft
        {
          OFFSET 4.673535 3.128971 -7.756137
          CHANNELS 3 Zrotation Xrotation Yrotation
          End Site
          {
            OFFSET 0 0 0
          }
        }
      }
    }
  }
  JOINT HipRight
  {
    OFFSET 1.850352 -2.018780 -3.010513
    CHANNELS 3 Zrotation Xrotation Yrotation
    JOINT KneeRight
    {
      OFFSET -10.839640 -31.130469 -0.655592
      CHANNELS 3 Zrotation Xrotation Yrotation
      JOINT AnkleRight
      {
        OFFSET 0.869755 -24.053367 3.866883
        CHANNELS 3 Zrotation Xrotation Yrotation
        JOINT FootRight
        {
          OFFSET 9.523878 -2.535973 -11.103322
          CHANNELS 3 Zrotation Xrotation Yrotation
          End Site
          {
            OFFSET 0 0 0
          }
        }
      }
    }
  }
}
MOTION
Frames: 11
Frame Time: 0.033333
54.557060 70.066020 310.301020 -0.000000 0.000000 1.115628 0.000000 0.000000 -1.115628 -0.000000 0.000000 0.000000 -0.000000 0.000000 0.000000 0.000000 0.000000 0.000000 -0.000000 0.000000 0.000000 -0.000000 0.000000 0.000000 -0.000000 0.000000 0.000000 -0.000000 0.000000 0.000000 0.000000 0.000000 0.000000 0.000000 0.000000 0.000000 -0.000000 0.000000 0.000000 -0.000000 0.000000 0.000000 -0.000000 0.000000 0.000000 -0.000000 0.000000 0.000000 0.000000 0.000000 0.000000 0.000000 0.000000 0.000000 0.000000 0.000000 -1.115628 -0.000000 0.000000 0.000000 -0.000000 0.000000 0.000000 0.000000 0.000000 0.000000 0.000000 0.000000 -1.115628 -0.000000 0.000000 0.000000 -0.000000 0.000000 0.000000 0.000000 0.000000 0.000000
53.302499 70.656693 310.756888 -2.307837 -0.206144 -23.510525 0.474871 -0.045657 23.430349 0.128602 0.450638 -0.098863 1.998212 2.361539 0.342656 0.000000 0.000000 0.000000 -2.331741 3.968432 0.536208 2.687029 -3.654260 -0.229749 3.738972 -5.421197 -4.048451 0.348735 7.136213 4.538938 0.000000 0.000000 0.000000 0.000000 0.000000 0.000000 -2.094110 8.223519 0.251874 0.514771 -4.408647 -0.286774 -1.754758 -11.093821 1.301837 6.934640 4.988387 -1.608922 0.000000 0.000000 0.000000 0.000000 0.000000 0.000000 3.477825 -0.068137 23.682002 -7.129162 7.035868 -1.622257 4.940994 -1.890230 -6.753901 0.000000 0.000000 0.000000 2.060598 7.307543 21.441292 -3.985540 -7.431130 1.398071 -2.330881 -3.285626 -0.522984 0.000000 0.000000 0.000000
52.205856 71.243378 311.050956 -3.872401 -0.757877 -42.308127 0.790154 0.184677 42.144920 0.192605 0.822447 -0.162424 3.001605 5.528276 0.803331 0.000000 0.000000 0.000000 -4.307664 6.908133 1.168335 4.747471 -5.934508 -0.382060 7.008678 -13.272983 -8.685174 0.372935 17.784369 9.479613 0.000000 0.000000 0.000000 0.000000 0.000000 0.000000 -5.073875 16.880007 1.114776 -10.916548 4.724806 -2.495537 1.861717 -43.768268 0.358867 21.905589 14.752602 -8.330212 0.000000 0.000000 0.000000 0.000000 0.000000 0.000000 5.998708 1.958586 42.428358 -13.605687 13.855321 -2.052067 10.076953 -2.451903 -13.194575 0.000000 0.000000 0.000000 -1.016043 13.947171 39.008356 -7.059526 -13.193862 2.174353 -6.849183 -9.048548 -1.933112 0.000000 0.000000 0.000000
51.267130 71.826073 311.183222 -4.792512 -1.649397 -54.375549 0.938619 0.446880 54.124027 0.212936 1.121643 -0.199355 2.976847 9.540084 1.456881 0.000000 0.000000 0.000000 -5.870764 8.799502 1.760462 6.258185 -6.809189 -0.511312 9.066687 -23.713508 -13.534223 0.052489 32.555971 13.928013 0.000000 0.000000 0.000000 0.000000 0.000000 0.000000 -8.717282 25.084189 2.656268 -126.387298 51.509020 61.494759 -124.700453 -39.777236 155.029748 62.642172 23.306564 -38.390129 0.000000 0.000000 0.000000 0.000000 0.000000 0.000000 7.353393 4.427244 54.250501 -19.519624 20.198208 -1.453776 15.518035 -1.983537 -18.371199 0.000000 0.000000 0.000000 -5.843125 18.238908 50.742033 -9.517109 -17.314813 2.523295 -13.791399 -16.921286 -4.908583 0.000000 0.000000 0.000000
50.486323 72.404779 311.153688 -5.121049 -2.897677 -61.101443 0.989020 0.643368 60.763819 0.201861 1.355004 -0.214820 1.836380 14.441540 2.437220 0.000000 0.000000 0.000000 -6.941117 9.558282 2.203722 7.257596 -6.167264 -0.659857 9.004356 -35.644731 -17.920927 0.534619 50.413979 15.815937 0.000000 0.000000 0.000000 0.000000 0.000000 0.000000 -12.711568 32.016963 4.736942 -144.253085 46.822125 69.898265 -71.304745 -17.713622 173.486037 22.349099 -27.490517 -66.912658 0.000000 0.000000 0.000000 0.000000 0.000000 0.000000 7.976087 6.557298 60.626100 -24.957172 25.956567 0.001347 21.200697 -0.864597 -21.497295 0.000000 0.000000 0.000000 -10.200917 20.731012 57.525403 -11.509062 -19.805971 2.571730 -22.550448 -25.193825 -9.793262 0.000000 0.000000 0.000000
49.863433 72.979497 310.962353 -4.870037 -4.542112 -63.431337 0.983598 0.748976 63.026216 0.165110 1.529563 -0.211112 -0.586637 20.257673 3.962231 0.000000 0.000000 0.000000 -7.363420 8.938453 2.402638 7.692397 -3.722448 -0.879807 6.365492 -46.794220 -21.039980 6.899804 67.721812 9.886558 0.000000 0.000000 0.000000 0.000000 0.000000 0.000000 -16.596907 37.089002 6.974386 -143.389253 46.278230 64.526076 -51.982746 -10.598164 -173.318265 -15.268198 -14.335348 -54.657799 0.000000 0.000000 0.000000 0.000000 0.000000 0.000000 8.216620 8.078020 62.548454 -29.948765 31.135966 2.161127 26.892899 0.633538 -22.051096 0.000000 0.000000 0.000000 -13.052289 22.256800 59.952868 -13.103338 -20.625613 2.408015 -30.415780 -31.186641 -15.124782 0.000000 0.000000 0.000000
49.076794 72.125000 310.917137 -3.606569 -7.542455 -56.013536 0.963071 0.741548 55.593902 0.050889 1.758831 -0.172668 -7.358378 26.531902 7.604203 0.000000 0.000000 0.000000 -3.693231 2.755064 1.619539 5.648568 6.643594 -1.422839 2.402191 -51.744420 -21.177537 -7.873473 72.775710 19.755629 0.000000 0.000000 0.000000 0.000000 0.000000 0.000000 -16.422343 37.219901 6.791512 -146.135956 36.219466 49.152527 -35.159355 -9.625605 -148.248226 -10.396507 -0.785558 -40.138384 0.000000 0.000000 0.000000 0.000000 0.000000 0.000000 8.409542 9.516883 54.009650 -38.400297 37.684948 6.647453 46.463105 20.668866 -11.800194 0.000000 0.000000 0.000000 -12.248332 24.806875 52.251836 -14.394951 -19.550243 2.093897 -38.493467 -34.939437 -23.743978 0.000000 0.000000 0.000000
48.796931 72.217079 310.320078 -2.026499 -11.322846 -3.903694 1.239202 -0.380383 3.554643 -0.058874 1.871473 -0.130229 -12.048606 33.450869 10.597038 0.000000 0.000000 0.000000 -2.652741 -5.036620 1.765411 4.355332 18.614606 -2.463477 -7.067250 -63.924815 -18.865444 31.437925 72.644083 -17.479334 0.000000 0.000000 0.000000 0.000000 0.000000 0.000000 -21.912985 42.282423 10.120172 -139.656050 32.683789 32.710716 -27.084214 -7.728950 -112.055229 -5.663130 17.022557 -5.410675 0.000000 0.000000 0.000000 0.000000 0.000000 0.000000 14.505314 2.306436 0.879448 -47.995047 42.855557 12.135917 49.347814 20.737737 -2.988867 0.000000 0.000000 0.000000 11.708879 24.157799 -4.321315 -14.671975 -14.549860 1.491192 -36.790801 -34.322089 -24.041245 0.000000 0.000000 0.000000
48.861936 73.456538 309.354538 -0.784146 -13.593977 10.373874 0.922198 -0.446211 -10.568582 -0.118634 1.774228 -0.101663 -14.858774 37.443223 12.578315 0.000000 0.000000 0.000000 -3.678939 -11.651119 2.324655 4.594365 27.533545 -3.465497 -8.563087 -65.438734 -14.557233 50.684478 72.651578 -38.436043 0.000000 0.000000 0.000000 0.000000 0.000000 0.000000 -41.180525 44.792453 22.208731 -119.318351 36.290015 28.157679 -34.806324 -2.826581 -124.955869 -14.307787 27.757100 40.098256 0.000000 0.000000 0.000000 0.000000 0.000000 0.000000 13.601478 -0.564093 -12.626501 -45.656624 47.454434 14.876947 43.055323 10.364819 5.208019 0.000000 0.000000 0.000000 15.286562 20.752211 -18.116340 -14.262468 -9.991436 1.183273 -25.576596 -29.908668 -15.976547 0.000000 0.000000 0.000000
49.153001 76.333436 307.916861 1.049821 -14.769661 -15.794871 0.719272 0.368344 15.899709 -0.342474 1.768814 -0.024202 -16.843264 41.135504 13.723017 0.000000 0.000000 0.000000 -7.626471 -11.758894 2.793803 4.803856 28.511804 -3.362747 -5.893926 -61.661751 -4.375415 72.224498 70.355068 -62.998812 0.000000 0.000000 0.000000 0.000000 0.000000 0.000000 -51.114809 39.492312 26.509876 -105.853731 41.407969 40.699665 -41.133404 4.106628 -123.966196 -18.597935 39.595132 79.222838 0.000000 0.000000 0.000000 0.000000 0.000000 0.000000 13.590526 0.736310 14.786764 -44.957201 55.010869 19.410314 35.975353 -0.459491 7.856780 0.000000 0.000000 0.000000 2.627115 22.033842 11.843505 -14.570028 -3.574494 0.573064 -10.633484 -20.534779 -6.845364 0.000000 0.000000 0.000000
49.856245 80.003918 306.878613 2.630869 -13.665865 11.463713 0.225637 0.827004 -11.071691 -0.344390 1.402666 0.029591 -11.882296 39.323289 9.363151 0.000000 0.000000 0.000000 -19.076480 -7.749734 4.160669 14.055715 20.770323 -5.241261 -3.539064 -58.577391 -3.127013 68.439040 74.475177 -62.121408 0.000000 0.000000 0.000000 0.000000 0.000000 0.000000 -55.769972 36.529032 27.286892 -84.387125 52.277102 46.030403 -60.431460 21.565583 -169.691573 -55.011540 24.440274 152.256969 0.000000 0.000000 0.000000 0.000000 0.000000 0.000000 11.739233 -7.671200 -11.167417 -45.084191 55.907322 20.141619 24.929499 -24.398220 4.881384 0.000000 0.000000 0.000000 9.105102 10.442354 -12.712603 -15.224953 6.786792 -0.557404 1.584612 -10.470315 -0.407508 0.000000 0.000000 0.000000
